<svg xmlns="http://www.w3.org/2000/svg" width="1000" height="240" viewBox="0 0 1000 240" role="img" aria-labelledby="title desc">
  <title id="title">City Play Co.</title>
  <desc id="desc">City Play Co. wordmark with a skyline, magnifying glass, and red game pawn.</desc>

  <g transform="translate(12 12) scale(.42)">
    <rect width="512" height="512" rx="84" fill="#F3EDDF"/>
    <g fill="#17372F">
      <path d="M54 372V286h52v86H54ZM114 372V222h66v150h-66ZM188 372V270h48v102h-48ZM302 372V184h72v188h-72ZM382 372V246h54v126h-54ZM444 372V306h24v66h-24ZM42 372h438v24H42z"/>
    </g>
    <g fill="none" stroke="#B18A3C" stroke-width="24" stroke-linecap="round">
      <circle cx="252" cy="238" r="132"/>
      <path d="M346 332 450 436"/>
    </g>
    <g fill="#A93643" stroke="#F3EDDF" stroke-width="8" stroke-linejoin="round">
      <circle cx="252" cy="204" r="32"/>
      <path d="M222 260c0-19 13-32 30-32s30 13 30 32c0 19-9 34-18 48h28l11 29H201l11-29h28c-9-14-18-29-18-48Z"/>
      <path d="M191 337h122l9 28H182l9-28Z"/>
    </g>
  </g>

  <text x="254" y="108" font-family="Arial, Helvetica, sans-serif" font-size="68" font-weight="800" letter-spacing="4" fill="#17372F">CITY PLAY CO.</text>
  <line x1="258" y1="133" x2="918" y2="133" stroke="#B18A3C" stroke-width="4"/>
  <text x="258" y="174" font-family="Courier New, monospace" font-size="25" font-weight="700" letter-spacing="5" fill="#A93643">GAME NIGHT IN YOUR CITY</text>
</svg>
